<svg xmlns="http://www.w3.org/2000/svg" width="680" height="320" viewBox="0 0 680 320" role="img"><title>Generic Binary Search Tree</title><desc>BST with root 50, left smaller, right larger</desc><style>text{font-family:sans-serif}</style><line x1="340" y1="82" x2="210" y2="145" stroke="#B4B2A9" stroke-width="1"/><line x1="340" y1="82" x2="470" y2="145" stroke="#B4B2A9" stroke-width="1"/><line x1="210" y1="185" x2="145" y2="232" stroke="#B4B2A9" stroke-width="1"/><line x1="210" y1="185" x2="275" y2="232" stroke="#B4B2A9" stroke-width="1"/><line x1="470" y1="185" x2="390" y2="232" stroke="#B4B2A9" stroke-width="1"/><line x1="470" y1="185" x2="535" y2="232" stroke="#B4B2A9" stroke-width="1"/><circle cx="340" cy="58" r="30" fill="#EAF3DE" stroke="#3B6D11" stroke-width="1"/><text font-size="14" font-weight="500" x="340" y="52" text-anchor="middle" dominant-baseline="central" fill="#27500A">50</text><text font-size="11" x="340" y="68" text-anchor="middle" dominant-baseline="central" fill="#3B6D11">root</text><circle cx="210" cy="163" r="28" fill="#E1F5EE" stroke="#0F6E56" stroke-width="0.5"/><text font-size="14" font-weight="500" x="210" y="163" text-anchor="middle" dominant-baseline="central" fill="#085041">30</text><circle cx="470" cy="163" r="28" fill="#E1F5EE" stroke="#0F6E56" stroke-width="0.5"/><text font-size="14" font-weight="500" x="470" y="163" text-anchor="middle" dominant-baseline="central" fill="#085041">70</text><circle cx="145" cy="252" r="26" fill="#F1EFE8" stroke="#5F5E5A" stroke-width="0.5"/><text font-size="14" font-weight="500" x="145" y="252" text-anchor="middle" dominant-baseline="central" fill="#444441">20</text><circle cx="275" cy="252" r="26" fill="#F1EFE8" stroke="#5F5E5A" stroke-width="0.5"/><text font-size="14" font-weight="500" x="275" y="252" text-anchor="middle" dominant-baseline="central" fill="#444441">40</text><circle cx="390" cy="252" r="26" fill="#F1EFE8" stroke="#5F5E5A" stroke-width="0.5"/><text font-size="14" font-weight="500" x="390" y="252" text-anchor="middle" dominant-baseline="central" fill="#444441">60</text><circle cx="535" cy="252" r="26" fill="#F1EFE8" stroke="#5F5E5A" stroke-width="0.5"/><text font-size="14" font-weight="500" x="535" y="252" text-anchor="middle" dominant-baseline="central" fill="#444441">80</text><text font-size="12" x="120" y="128" text-anchor="middle" fill="#888780">left smaller</text><text font-size="12" x="520" y="128" text-anchor="middle" fill="#888780">right larger</text><text font-size="12" x="340" y="298" text-anchor="middle" fill="#B4B2A9">inorder: 20 30 40 50 60 70 80 (sorted)</text></svg>