<svg xmlns="http://www.w3.org/2000/svg" width="680" height="290" viewBox="0 0 680 290" role="img">
  <title>Generic Hash Map — separate chaining</title>
  <desc>Hash map showing key through hash function into buckets with chaining</desc>
  <defs>
    <marker id="ah" viewBox="0 0 10 10" refX="8" refY="5" markerWidth="6" markerHeight="6" orient="auto-start-reverse">
      <path d="M2 1L8 5L2 9" fill="none" stroke="#534AB7" stroke-width="1.5" stroke-linecap="round"/>
    </marker>
    <marker id="ag" viewBox="0 0 10 10" refX="8" refY="5" markerWidth="6" markerHeight="6" orient="auto-start-reverse">
      <path d="M2 1L8 5L2 9" fill="none" stroke="#888780" stroke-width="1.2" stroke-linecap="round"/>
    </marker>
    <marker id="ach" viewBox="0 0 10 10" refX="8" refY="5" markerWidth="6" markerHeight="6" orient="auto-start-reverse">
      <path d="M2 1L8 5L2 9" fill="none" stroke="#5F5E5A" stroke-width="1" stroke-linecap="round"/>
    </marker>
  </defs>
  <rect x="18" y="126" width="76" height="36" rx="18" fill="#534AB7"/>
  <text font-family="sans-serif" font-size="13" font-weight="500" x="56" y="144" text-anchor="middle" dominant-baseline="central" fill="#EEEDFE">"cat"</text>
  <line x1="94" y1="144" x2="134" y2="144" stroke="#534AB7" stroke-width="1.5" marker-end="url(#ah)"/>
  <rect x="138" y="112" width="96" height="64" rx="18" fill="#EEEDFE"></rect>
  <text font-family="sans-serif" font-size="13" font-weight="500" x="186" y="136" text-anchor="middle" dominant-baseline="central" fill="#3C3489">hash()</text>
  <text font-family="sans-serif" font-size="11" x="186" y="154" text-anchor="middle" dominant-baseline="central" fill="#534AB7">key % prime</text>
  <line x1="234" y1="144" x2="272" y2="106" stroke="#888780" stroke-width="1.2" marker-end="url(#ag)"/>
  <rect x="278" y="38" width="62" height="32" rx="10" fill="#F1EFE8" stroke="#D3D1C7" stroke-width="0.5" opacity="0.6"/>
  <text font-family="sans-serif" font-size="11" x="309" y="54" text-anchor="middle" dominant-baseline="central" fill="#B4B2A9">[0] null</text>
  <rect x="278" y="78" width="62" height="32" rx="10" fill="#F1EFE8" stroke="#5F5E5A" stroke-width="0.5"/>
  <text font-family="sans-serif" font-size="11" x="309" y="94" text-anchor="middle" dominant-baseline="central" fill="#444441">[1]</text>
  <rect x="348" y="78" width="78" height="32" rx="10" fill="#E1F5EE" stroke="#0F6E56" stroke-width="0.5"/>
  <text font-family="sans-serif" font-size="11" x="387" y="94" text-anchor="middle" dominant-baseline="central" fill="#085041">"dog":val</text>
  <line x1="340" y1="94" x2="344" y2="94" stroke="#5F5E5A" stroke-width="1" marker-end="url(#ach)"/>
  <rect x="278" y="118" width="62" height="32" rx="10" fill="#534AB7"/>
  <text font-family="sans-serif" font-size="11" x="309" y="134" text-anchor="middle" dominant-baseline="central" fill="#EEEDFE">[2]</text>
  <rect x="348" y="118" width="78" height="32" rx="10" fill="#E1F5EE" stroke="#0F6E56" stroke-width="0.5"/>
  <text font-family="sans-serif" font-size="11" x="387" y="134" text-anchor="middle" dominant-baseline="central" fill="#085041">"cat":val</text>
  <line x1="426" y1="134" x2="440" y2="134" stroke="#5F5E5A" stroke-width="1" marker-end="url(#ach)"/>
  <rect x="444" y="118" width="78" height="32" rx="10" fill="#9FE1CB" stroke="#0F6E56" stroke-width="0.5"/>
  <text font-family="sans-serif" font-size="11" x="483" y="134" text-anchor="middle" dominant-baseline="central" fill="#04342C">"act":val</text>
  <text font-family="sans-serif" font-size="10" x="540" y="134" dominant-baseline="central" fill="#B4B2A9">null</text>
  <line x1="522" y1="134" x2="536" y2="134" stroke="#B4B2A9" stroke-width="0.8"/>
  <rect x="430" y="104" width="108" height="16" rx="8" fill="#FAECE7"/>
  <text font-family="sans-serif" font-size="10" x="484" y="112" text-anchor="middle" dominant-baseline="central" fill="#993C1D">collision → chain</text>
  <rect x="278" y="158" width="62" height="32" rx="10" fill="#F1EFE8" stroke="#D3D1C7" stroke-width="0.5" opacity="0.6"/>
  <text font-family="sans-serif" font-size="11" x="309" y="174" text-anchor="middle" dominant-baseline="central" fill="#B4B2A9">[3] null</text>
  <rect x="278" y="198" width="62" height="32" rx="10" fill="#F1EFE8" stroke="#5F5E5A" stroke-width="0.5"/>
  <text font-family="sans-serif" font-size="11" x="309" y="214" text-anchor="middle" dominant-baseline="central" fill="#444441">[4]</text>
  <rect x="348" y="198" width="78" height="32" rx="10" fill="#E1F5EE" stroke="#0F6E56" stroke-width="0.5"/>
  <text font-family="sans-serif" font-size="11" x="387" y="214" text-anchor="middle" dominant-baseline="central" fill="#085041">"fox":val</text>
  <line x1="340" y1="214" x2="344" y2="214" stroke="#5F5E5A" stroke-width="1" marker-end="url(#ach)"/>
  <text font-family="sans-serif" font-size="12" x="340" y="254" text-anchor="middle" fill="#B4B2A9">size rounds to nearest prime · chains allocated lazily · O(1) avg</text>
</svg>
