<svg xmlns="http://www.w3.org/2000/svg" width="680" height="310" viewBox="0 0 680 310" role="img">
  <title>Generic Max-Heap</title>
  <desc>Max-heap tree showing parent always greater than or equal to children</desc>
  <line x1="340" y1="80" x2="210" y2="148" stroke="#FAC775" stroke-width="2"/>
  <line x1="340" y1="80" x2="470" y2="148" stroke="#FAC775" stroke-width="2"/>
  <line x1="210" y1="188" x2="142" y2="244" stroke="#FAC775" stroke-width="1.5"/>
  <line x1="210" y1="188" x2="278" y2="244" stroke="#FAC775" stroke-width="1.5"/>
  <line x1="470" y1="188" x2="402" y2="244" stroke="#FAC775" stroke-width="1.5"/>
  <line x1="470" y1="188" x2="538" y2="244" stroke="#FAC775" stroke-width="1.5"/>
  <circle cx="340" cy="54" r="34" fill="#633806"/>
  <text font-family="sans-serif" font-size="16" font-weight="500" x="340" y="48" text-anchor="middle" dominant-baseline="central" fill="#FAEEDA">90</text>
  <text font-family="sans-serif" font-size="10" x="340" y="66" text-anchor="middle" dominant-baseline="central" fill="#FAC775">max</text>
  <circle cx="210" cy="168" r="28" fill="#854F0B"/>
  <text font-family="sans-serif" font-size="15" font-weight="500" x="210" y="168" text-anchor="middle" dominant-baseline="central" fill="#FAEEDA">70</text>
  <circle cx="470" cy="168" r="28" fill="#844F4"/>
  <text font-family="sans-serif" font-size="15" font-weight="500" x="470" y="168" text-anchor="middle" dominant-baseline="central" fill="#FAEEDA">60</text>
  <circle cx="142" cy="260" r="24" fill="#BA7517"/>
  <text font-family="sans-serif" font-size="14" font-weight="500" x="142" y="260" text-anchor="middle" dominant-baseline="central" fill="#FAEEDA">40</text>
  <circle cx="278" cy="260" r="24" fill="#BA7517"/>
  <text font-family="sans-serif" font-size="14" font-weight="500" x="278" y="260" text-anchor="middle" dominant-baseline="central" fill="#FAEEDA">50</text>
  <circle cx="402" cy="260" r="24" fill="#BA7517"/>
  <text font-family="sans-serif" font-size="14" font-weight="500" x="402" y="260" text-anchor="middle" dominant-baseline="central" fill="#FAEEDA">30</text>
  <circle cx="538" cy="260" r="24" fill="#BA7517"/>
  <text font-family="sans-serif" font-size="14" font-weight="500" x="538" y="260" text-anchor="middle" dominant-baseline="central" fill="#FAEEDA">20</text>
  <text font-family="sans-serif" font-size="10" x="382" y="32" fill="#B4B2A9">[0]</text>
  <text font-family="sans-serif" font-size="10" x="246" y="158" fill="#B4B2A9">[1]</text>
  <text font-family="sans-serif" font-size="10" x="506" y="158" fill="#B4B2A9">[2]</text>
  <rect x="272" y="28" width="136" height="22" rx="11" fill="#FAEEDA"/>
  <text font-family="sans-serif" font-size="11" x="340" y="39" text-anchor="middle" dominant-baseline="central" fill="#633806">parent >= children always</text>
  <text font-family="sans-serif" font-size="12" x="340" y="298" text-anchor="middle" fill="#B4B2A9">HeapPeek() returns max in O(1) · Insert/Extract O(log n)</text>
</svg>
