<svg xmlns="http://www.w3.org/2000/svg" width="680" height="310" viewBox="0 0 680 310" role="img"><title>Generic Max-Heap</title><desc>Max-heap tree</desc><line x1="340" y1="80" x2="210" y2="145" stroke="#D3D1C7" stroke-width="1"/><line x1="340" y1="80" x2="470" y2="145" stroke="#D3D1C7" stroke-width="1"/><line x1="210" y1="185" x2="145" y2="238" stroke="#D3D1C7" stroke-width="1"/><line x1="210" y1="185" x2="275" y2="238" stroke="#D3D1C7" stroke-width="1"/><line x1="470" y1="185" x2="405" y2="238" stroke="#D3D1C7" stroke-width="1"/><line x1="470" y1="185" x2="535" y2="238" stroke="#D3D1C7" stroke-width="1"/><circle cx="340" cy="58" r="30" fill="#FAEEDA" stroke="#854F4" stroke-width="1"/><text font-family="sans-serif" font-size="14" font-weight="500" x="340" y="52" text-anchor="middle" dominant-baseline="central" fill="#633806">90</text><text font-family="sans-serif" font-size="11" x="340" y="68" text-anchor="middle" dominant-baseline="central" fill="#854F0B">max</text><circle cx="210" cy="163" r="28" fill="#FAC775" stroke="#BA7517" stroke-width="0.5"/><text font-family="sans-serif" font-size="14" font-weight="500" x="210" y="163" text-anchor="middle" dominant-baseline="central" fill="#633806">70</text><circle cx="470" cy="163" r="28" fill="#FAC775" stroke="#BA7517" stroke-width="0.5"/><text font-family="sans-serif" font-size="14" font-weight="500" x="470" y="163" text-anchor="middle" dominant-baseline="central" fill="#633806">60</text><circle cx="145" cy="255" r="26" fill="#F1EFE8" stroke="#5F5E5A" stroke-width="0.5"/><text font-family="sans-serif" font-size="14" font-weight="500" x="145" y="255" text-anchor="middle" dominant-baseline="central" fill="#444441">40</text><circle cx="275" cy="255" r="26" fill="#F1EFE8" stroke="#5F5E5A" stroke-width="0.5"/><text font-family="sans-serif" font-size="14" font-weight="500" x="275" y="255" text-anchor="middle" dominant-baseline="central" fill="#444441">50</text><circle cx="405" cy="255" r="26" fill="#F1EFE8" stroke="#5F5E5A" stroke-width="0.5"/><text font-family="sans-serif" font-size="14" font-weight="500" x="405" y="255" text-anchor="middle" dominant-baseline="central" fill="#444441">30</text><circle cx="535" cy="255" r="26" fill="#F1EFE8" stroke="#5F5E5A" stroke-width="0.5"/><text font-family="sans-serif" font-size="14" font-weight="500" x="535" y="255" text-anchor="middle" dominant-baseline="central" fill="#444441">20</text><text font-family="sans-serif" font-size="12" x="340" y="298" text-anchor="middle" fill="#B4B2A9">max-heap: parent >= children - HeapPeek() returns max in O(1)</text></svg>