<svg xmlns="http://www.w3.org/2000/svg" width="680" height="220" viewBox="0 0 680 220" role="img">
  <title>Generic Doubly Linked List</title>
  <desc>Doubly linked list with sentinel head, three nodes, and tail, showing bidirectional pointers</desc>
  <style>text { font-family: sans-serif; fill: #3d3d3a; }</style>
  <defs>
    <marker id="anxt" viewBox="0 0 10 10" refX="8" refY="5" markerWidth="6" markerHeight="6" orient="auto-start-reverse"><path d="M2 1L8 5L2 9" fill="none" stroke="#185FA5" stroke-width="1.5" stroke-linecap="round"/></marker>
    <marker id="aprv" viewBox="0 0 10 10" refX="8" refY="5" markerWidth="6" markerHeight="6" orient="auto-start-reverse"><path d="M2 1L8 5L2 9" fill="none" stroke="#888780" stroke-width="1.2" stroke-linecap="round"/></marker>
    <marker id="aitr" viewBox="0 0 10 10" refX="8" refY="5" markerWidth="6" markerHeight="6" orient="auto-start-reverse"><path d="M2 1L8 5L2 9" fill="none" stroke="#534AB7" stroke-width="1.5" stroke-linecap="round"/></marker>
  </defs>
  <rect x="30" y="75" width="80" height="60" rx="4" fill="#F1EFE8" stroke="#5F5E5A" stroke-width="0.5"/>
  <text font-size="14" font-weight="500" x="70" y="99" text-anchor="middle" dominant-baseline="central" fill="#444441">head</text>
  <text font-size="12" x="70" y="117" text-anchor="middle" dominant-baseline="central" fill="#888780">sentinel</text>
  <rect x="158" y="75" width="110" height="60" rx="4" fill="#E6F1FB" stroke="#185FA5" stroke-width="0.5"/>
  <text font-size="14" font-weight="500" x="213" y="99" text-anchor="middle" dominant-baseline="central" fill="#0C447C">node A</text>
  <text font-size="11" x="213" y="117" text-anchor="middle" dominant-baseline="central" fill="#185FA5">data - prev - next</text>
  <rect x="316" y="75" width="110" height="60" rx="4" fill="#EEEDFE" stroke="#534AB7" stroke-width="1"/>
  <text font-size="14" font-weight="500" x="371" y="99" text-anchor="middle" dominant-baseline="central" fill="#3C3489">node B</text>
  <text font-size="11" x="371" y="117" text-anchor="middle" dominant-baseline="central" fill="#534AB7">data - prev - next</text>
  <rect x="474" y="75" width="110" height="60" rx="4" fill="#E6F1FB" stroke="#185FA5" stroke-width="0.5"/>
  <text font-size="14" font-weight="500" x="529" y="99" text-anchor="middle" dominant-baseline="central" fill="#0C447C">node C</text>
  <text font-size="11" x="529" y="117" text-anchor="middle" dominant-baseline="central" fill="#185FA5">data - prev - next</text>
  <rect x="622" y="75" width="40" height="60" rx="4" fill="#F1EFE8" stroke="#B4B2A9" stroke-width="0.5"/>
  <text font-size="12" x="642" y="105" text-anchor="middle" dominant-baseline="central" fill="#888780">end</text>
  <line x1="110" y1="98" x2="152" y2="98" stroke="#185FA5" stroke-width="1.2" marker-end="url(#anxt)"/>
  <line x1="268" y1="98" x2="310" y2="98" stroke="#185FA5" stroke-width="1.2" marker-end="url(#anxt)"/>
  <line x1="426" y1="98" x2="468" y2="98" stroke="#185FA5" stroke-width="1.2" marker-end="url(#anxt)"/>
  <line x1="584" y1="98" x2="616" y2="98" stroke="#185FA5" stroke-width="1.2" marker-end="url(#anxt)"/>
  <line x1="158" y1="115" x2="116" y2="115" stroke="#888780" stroke-width="1" stroke-dasharray="3 2" marker-end="url(#aprv)"/>
  <line x1="316" y1="115" x2="274" y2="115" stroke="#888780" stroke-width="1" stroke-dasharray="3 2" marker-end="url(#aprv)"/>
  <line x1="474" y1="115" x2="432" y2="115" stroke="#888780" stroke-width="1" stroke-dasharray="3 2" marker-end="url(#aprv)"/>
  <line x1="622" y1="115" x2="590" y2="115" stroke="#888780" stroke-width="1" stroke-dasharray="3 2" marker-end="url(#aprv)"/>
  <line x1="371" y1="52" x2="371" y2="69" stroke="#534AB7" stroke-width="1.5" marker-end="url(#aitr)"/>
  <text font-size="12" x="371" y="44" text-anchor="middle" fill="#534AB7">ListItr</text>
  <line x1="80" y1="185" x2="110" y2="185" stroke="#185FA5" stroke-width="1.2" marker-end="url(#anxt)"/>
  <text font-size="12" x="116" y="189" fill="#888780">next</text>
  <line x1="190" y1="185" x2="220" y2="185" stroke="#888780" stroke-width="1" stroke-dasharray="3 2" marker-end="url(#aprv)"/>
  <text font-size="12" x="226" y="189" fill="#888780">prev</text>
  <text font-size="12" x="420" y="189" text-anchor="middle" fill="#B4B2A9">push/pop head and tail O(1)</text>
</svg>
