<svg xmlns="http://www.w3.org/2000/svg" width="680" height="210" viewBox="0 0 680 210" role="img">
  <title>Generic Doubly Linked List</title>
  <desc>Doubly linked list with sentinel nodes and bidirectional pointers</desc>
  <defs>
    <marker id="anxt" viewBox="0 0 10 10" refX="8" refY="5" markerWidth="6" markerHeight="6" orient="auto-start-reverse">
      <path d="M2 1L8 5L2 9" fill="none" stroke="#185FA5" stroke-width="1.5" stroke-linecap="round"/>
    </marker>
    <marker id="aprv" viewBox="0 0 10 10" refX="8" refY="5" markerWidth="6" markerHeight="6" orient="auto-start-reverse">
      <path d="M2 1L8 5L2 9" fill="none" stroke="#888780" stroke-width="1.2" stroke-linecap="round"/>
    </marker>
    <marker id="aitr" viewBox="0 0 10 10" refX="8" refY="5" markerWidth="6" markerHeight="6" orient="auto-start-reverse">
      <path d="M2 1L8 5L2 9" fill="none" stroke="#534AB7" stroke-width="1.5" stroke-linecap="round"/>
    </marker>
  </defs>
  <rect x="28" y="72" width="76" height="60" rx="14" fill="#F1EFE8" stroke="#D3D1C7" stroke-width="1"/>
  <text font-family="sans-serif" font-size="13" font-weight="500" x="66" y="96" text-anchor="middle" dominant-baseline="central" fill="#444441">head</text>
  <text font-family="sans-serif" font-size="11" x="66" y="114" text-anchor="middle" dominant-baseline="central" fill="#888780">sentinel</text>
  <rect x="152" y="72" width="110" height="60" rx="14" fill="#E6F1FB" stroke="#85B7EB" stroke-width="1"/>
  <text font-family="sans-serif" font-size="13" font-weight="500" x="207" y="96" text-anchor="middle" dominant-baseline="central" fill="#0C447C">node A</text>
  <text font-family="sans-serif" font-size="10" x="207" y="114" text-anchor="middle" dominant-baseline="central" fill="#185FA5">data · prev · next</text>
  <rect x="312" y="66" width="110" height="72" rx="16" fill="#185FA5"></rect>
  <text font-family="sans-serif" font-size="13" font-weight="500" x="367" y="92" text-anchor="middle" dominant-baseline="central" fill="#E6F1FB">node B</text>
  <text font-family="sans-serif" font-size="10" x="367" y="110" text-anchor="middle" dominant-baseline="central" fill="#85B7EB">data · prev · next</text>
  <rect x="472" y="72" width="110" height="60" rx="14" fill="#E6F1FB" stroke="#85B7EB" stroke-width="1"/>
  <text font-family="sans-serif" font-size="13" font-weight="500" x="527" y="96" text-anchor="middle" dominant-baseline="central" fill="#0C447C">node C</text>
  <text font-family="sans-serif" font-size="10" x="527" y="114" text-anchor="middle" dominant-baseline="central" fill="#185FA5">data · prev · next</text>
  <rect x="630" y="72" width="38" height="60" rx="12" fill="#F1EFE8" stroke="#D3D1C7" stroke-width="1"/>
  <text font-family="sans-serif" font-size="11" x="649" y="102" text-anchor="middle" dominant-baseline="central" fill="#888780">end</text>
  <line x1="104" y1="95" x2="146" y2="95" stroke="#185FA5" stroke-width="1.2" marker-end="url(#anxt)"/>
  <line x1="262" y1="95" x2="306" y2="95" stroke="#185FA5" stroke-width="1.2" marker-end="url(#anxt)"/>
  <line x1="422" y1="95" x2="466" y2="95" stroke="#185FA5" stroke-width="1.2" marker-end="url(#anxt)"/>
  <line x1="582" y1="95" x2="624" y2="95" stroke="#185FA5" stroke-width="1.2" marker-end="url(#anxt)"/>
  <line x1="152" y1="112" x2="110" y2="112" stroke="#888780" stroke-width="1" stroke-dasharray="3 2" marker-end="url(#aprv)"/>
  <line x1="312" y1="112" x2="268" y2="112" stroke="#888780" stroke-width="1" stroke-dasharray="3 2" marker-end="url(#aprv)"/>
  <line x1="472" y1="112" x2="428" y2="112" stroke="#888780" stroke-width="1" stroke-dasharray="3 2" marker-end="url(#aprv)"/>
  <line x1="630" y1="112" x2="588" y2="112" stroke="#888780" stroke-width="1" stroke-dasharray="3 2" marker-end="url(#aprv)"/>
  <line x1="367" y1="46" x2="367" y2="60" stroke="#534AB7" stroke-width="1.5" marker-end="url(#aitr)"/>
  <rect x="326" y="28" width="82" height="22" rx="11" fill="#534AB7"/>
  <text font-family="sans-serif" font-size="11" x="367" y="39" text-anchor="middle" dominant-baseline="central" fill="#EEEDFE">ListItr</text>
  <line x1="60" y1="178" x2="90" y2="178" stroke="#185FA5" stroke-width="1.2" marker-end="url(#anxt)"/>
  <text font-family="sans-serif" font-size="11" x="96" y="182" fill="#888780">next</text>
  <line x1="160" y1="178" x2="190" y2="178" stroke="#888780" stroke-width="1" stroke-dasharray="3 2" marker-end="url(#aprv)"/>
  <text font-family="sans-serif" font-size="11" x="196" y="182" fill="#888780">prev</text>
  <text font-family="sans-serif" font-size="11" x="400" y="182" text-anchor="middle" fill="#B4B2A9">push/pop head and tail O(1)</text>
</svg>
