<svg xmlns="http://www.w3.org/2000/svg" width="680" height="220" viewBox="0 0 680 220" role="img"><title>Generic Vector</title><desc>Vector showing used slots and capacity</desc><defs><marker id="ag" viewBox="0 0 10 10" refX="8" refY="5" markerWidth="6" markerHeight="6" orient="auto-start-reverse"><path d="M2 1L8 5L2 9" fill="none" stroke="#185FA5" stroke-width="1.5" stroke-linecap="round"/></marker></defs><rect x="60" y="80" width="80" height="60" rx="4" fill="#E6F1FB" stroke="#185FA5" stroke-width="0.5"/><text font-family="sans-serif" font-size="14" font-weight="500" x="100" y="104" text-anchor="middle" dominant-baseline="central" fill="#0C447C">data[0]</text><text font-family="sans-serif" font-size="11" x="100" y="122" text-anchor="middle" dominant-baseline="central" fill="#185FA5">void*</text><rect x="148" y="80" width="80" height="60" rx="4" fill="#E6F1FB" stroke="#185FA5" stroke-width="0.5"/><text font-family="sans-serif" font-size="14" font-weight="500" x="188" y="104" text-anchor="middle" dominant-baseline="central" fill="#0C447C">data[1]</text><text font-family="sans-serif" font-size="11" x="188" y="122" text-anchor="middle" dominant-baseline="central" fill="#185FA5">void*</text><rect x="236" y="80" width="80" height="60" rx="4" fill="#E6F1FB" stroke="#185FA5" stroke-width="0.5"/><text font-family="sans-serif" font-size="14" font-weight="500" x="276" y="104" text-anchor="middle" dominant-baseline="central" fill="#0C447C">data[2]</text><text font-family="sans-serif" font-size="11" x="276" y="122" text-anchor="middle" dominant-baseline="central" fill="#185FA5">void*</text><rect x="324" y="80" width="80" height="60" rx="4" fill="#E6F1FB" stroke="#185FA5" stroke-width="0.5"/><text font-family="sans-serif" font-size="14" font-weight="500" x="364" y="104" text-anchor="middle" dominant-baseline="central" fill="#0C447C">data[3]</text><text font-family="sans-serif" font-size="11" x="364" y="122" text-anchor="middle" dominant-baseline="central" fill="#185FA5">void*</text><rect x="412" y="80" width="80" height="60" rx="4" fill="#F1EFE8" stroke="#D3D1C7" stroke-width="0.5" stroke-dasharray="4 2"/><text font-family="sans-serif" font-size="12" x="452" y="110" text-anchor="middle" dominant-baseline="central" fill="#B4B2A9">empty</text><rect x="500" y="80" width="80" height="60" rx="4" fill="#F1EFE8" stroke="#D3D1C7" stroke-width="0.5" stroke-dasharray="4 2"/><text font-family="sans-serif" font-size="12" x="540" y="110" text-anchor="middle" dominant-baseline="central" fill="#B4B2A9">empty</text><line x1="60" y1="60" x2="404" y2="60" stroke="#185FA5" stroke-width="0.8"/><line x1="60" y1="56" x2="60" y2="64" stroke="#185FA5" stroke-width="0.8"/><line x1="404" y1="56" x2="404" y2="64" stroke="#185FA5" stroke-width="0.8"/><text font-family="sans-serif" font-size="12" x="232" y="50" text-anchor="middle" fill="#185FA5">size = 4</text><line x1="60" y1="158" x2="580" y2="158" stroke="#888780" stroke-width="0.8"/><line x1="60" y1="154" x2="60" y2="162" stroke="#888780" stroke-width="0.8"/><line x1="580" y1="154" x2="580" y2="162" stroke="#888780" stroke-width="0.8"/><text font-family="sans-serif" font-size="12" x="320" y="174" text-anchor="middle" fill="#888780">capacity = 6</text><text font-family="sans-serif" font-size="12" x="630" y="88" text-anchor="middle" fill="#185FA5">grow by</text><text font-family="sans-serif" font-size="12" x="630" y="104" text-anchor="middle" fill="#185FA5">blockSize</text><line x1="580" y1="110" x2="618" y2="110" stroke="#185FA5" stroke-width="1.2" marker-end="url(#ag)"/><text font-family="sans-serif" font-size="12" x="320" y="200" text-anchor="middle" fill="#B4B2A9">VectorAppend O(1) amort - VectorGet/Set O(1) - stores any void*</text></svg>